<svg width="535" height="86" viewBox="0 0 535 86" fill="none" xmlns="http://www.w3.org/2000/svg">
<path d="M36.616 83.746H13.916V30.328C13.916 28.181 12.169 26.434 10.022 26.434H0V14.268L1.323 14.11C1.438 14.096 13.165 12.55 22.39 1.81799L22.839 1.29599H36.616V83.744V83.746ZM16.916 80.746H33.616V4.29699H24.208C16.062 13.464 6.473 16.158 3 16.865V23.434H10.022C13.823 23.434 16.916 26.527 16.916 30.328V80.746Z" fill="black"/>
<path d="M437.151 83.746H414.451V30.328C414.451 28.181 412.704 26.434 410.556 26.434H400.534V14.268L401.857 14.11C401.971 14.096 413.7 12.55 422.924 1.81799L423.373 1.29599H437.15V83.744L437.151 83.746ZM417.451 80.746H434.151V4.29699H424.743C416.597 13.464 407.007 16.157 403.534 16.864V23.433H410.556C414.358 23.433 417.451 26.526 417.451 30.327V80.744V80.746Z" fill="black"/>
<path d="M403.534 69.81H97.215V55.398H403.534V69.81ZM100.215 66.81H400.534V58.398H100.215V66.81Z" fill="black"/>
<path d="M509.71 25.702H502.861V6.578H499.098V1.125H513.643V6.578H509.709V25.703L509.71 25.702ZM503.611 24.952H508.96V5.828H512.894V1.875H499.849V5.828H503.612V24.953L503.611 24.952Z" fill="black"/>
<path d="M534.285 25.702H527.63V14.576L526.04 25.702H521.95L520.311 14.491V25.702H514.394V0.835999H522.918L524.054 8.195L525.107 0.835999H534.285V25.702ZM528.38 24.952H533.535V1.586H525.758L524.084 13.296L522.276 1.586H515.144V24.952H519.561V9.332L520.307 9.278L522.598 24.952H525.389L527.633 9.246L528.379 9.299V24.951L528.38 24.952Z" fill="black"/>
<path d="M64.851 56.144H53.718L64.851 9.44501V56.144ZM57.517 53.144H61.851V34.966L57.517 53.144Z" fill="black"/>
<path d="M84.972 83.746H61.851V69.81H38.382V54.401L56.094 1.297H84.972V53.144H90.614V69.81H84.972V83.746ZM64.851 80.746H81.972V66.81H87.614V56.144H81.972V4.297H58.256L41.381 54.887V66.809H64.85V80.745L64.851 80.746Z" fill="black"/>
<path d="M464.789 20.504V30.45C469.151 27.157 474.36 26.9 475.026 26.948C484.406 26.983 492.027 34.624 492.027 44.012V64.97C492.027 76.186 482.902 85.31 471.686 85.31H463.452C451.84 85.31 442.392 75.862 442.392 64.249V21.438C442.392 9.617 452.009 0 463.83 0H472.932C483.461 0 492.028 8.566 492.028 19.096V25.27H470.181V17.609C470.181 16.123 468.971 14.913 467.485 14.913C465.999 14.913 464.79 16.122 464.79 17.609V20.729H461.79V17.609C461.79 14.468 464.345 11.913 467.485 11.913C470.625 11.913 473.181 14.468 473.181 17.609V22.27H489.028V19.096C489.028 10.221 481.807 3 472.932 3H463.83C453.664 3 445.392 11.271 445.392 21.438V64.25C445.392 74.208 453.494 82.311 463.452 82.311H471.686C481.248 82.311 489.027 74.532 489.027 64.971V44.013C489.027 36.258 483.613 29.993 475.858 29.993C463.264 29.993 461.788 40.857 461.788 40.857V20.515" fill="black"/>
<path d="M467.583 73.483C464.643 73.483 462.25 71.091 462.25 68.15V44.688C462.25 41.748 464.643 39.355 467.583 39.355C470.523 39.355 472.915 41.747 472.915 44.688V68.15C472.915 71.09 470.523 73.483 467.583 73.483ZM467.583 42.356C466.297 42.356 465.25 43.402 465.25 44.689V68.151C465.25 69.437 466.297 70.484 467.583 70.484C468.869 70.484 469.915 69.438 469.915 68.151V44.689C469.915 43.403 468.869 42.356 467.583 42.356Z" fill="black"/>
</svg>
