<?xml version='1.0' encoding='utf-8'?>
<!-- Generator: imaengine 6.0   -->
<svg xmlns:xlink="http://www.w3.org/1999/xlink" xmlns="http://www.w3.org/2000/svg" viewBox="0,0,1208,214" style="enable-background:new 0 0 1208 214;" version="1.1">
<defs/>
<g id="layer0">
<path d="M1012,198.525C994.793,193.954 983.973,184.028 978.889,168.15C976.828,161.712 976.758,159.758 976.695,107C976.644,65.0446 976.934,51.234 977.952,47C982.034,30.0348 993.789,18.4217 1012,13.3628C1021.63,10.6869 1045.88,10.9454 1055.33,13.8248C1074.76,19.7419 1084.16,32.5052 1086.59,56.25L1087.28,63L1064.14,63C1051.41,63 1040.97,62.6625 1040.93,62.25C1040.89,61.8375 1040.51,57.5666 1040.09,52.759C1039.16,42.1691 1037.71,40 1031.52,40C1028.45,40 1026.77,40.6127 1025.17,42.3145C1023.08,44.5415 1023,45.435 1023,65.9679L1023,87.3068L1026.56,83.645C1032.87,77.1393 1036.34,76 1049.82,76C1060.91,76 1062.08,76.1894 1066.9,78.7669C1083.97,87.887 1087.79,100.055 1086.72,141.948C1086,170.246 1084.04,177.726 1074.98,186.676C1065.65,195.896 1054.17,199.886 1035,200.568C1022.83,201.001 1020.56,200.799 1012,198.525ZM1037.76,168.038C1040.08,164.592 1040.09,164.441 1039.79,136.866L1039.5,109.158L1037.08,106.579C1034.38,103.707 1029.58,103.126 1026.59,105.309C1025.61,106.029 1024.42,108.617 1023.94,111.059C1022.79,117.034 1022.81,160.478 1023.97,165.473C1025.1,170.345 1027.42,172.181 1031.97,171.795C1034.64,171.567 1035.97,170.707 1037.76,168.038ZM51.7583,197.425C51.442,197.109 51.1227,171.035 51.0487,139.483C50.9747,107.932 50.486,79.5028 49.9629,76.3083C49.4397,73.1137 49.009,70.3991 49.0058,70.2757C48.9556,68.3306 32.472,65.0951 22.2162,65.0173C19.9646,65.0002 19.9363,64.8506 20.2162,54.41L20.5,43.82L30,40.6385C44.865,35.6603 61.3523,25.4712 67.4242,17.5104L70.1018,14L84.0509,14L98,14L98,106L98,198L75.1667,198C62.6083,198 52.0746,197.741 51.7583,197.425ZM158.775,181.75L158.5,165.5L131.25,165.234L104,164.968L104,149.228L104,133.487L123.834,73.9937L143.668,14.5L174.334,14.2355L205,13.9711L205,73.9855L205,134L211.5,134L218,134L218,149.5L218,165L211.5,165L205,165L205,181.5L205,198L182.025,198L159.05,198L158.775,181.75ZM159,117.661C159,108.674 158.701,92.4087 158.337,81.5151L157.673,61.7085L149.004,95.1043C144.236,113.472 140.026,129.738 139.648,131.25L138.962,134L148.981,134L159,134L159,117.661ZM917.524,196.769C917.288,196.071 916.937,168.5 916.744,135.5C916.363,70.3078 916.453,71.3197 910.766,68.3789C909.201,67.5698 902.749,66.4011 896.428,65.7818L884.936,64.6559L885.218,54.1741L885.5,43.6923L894.128,41.0046C909.811,36.1194 922.879,28.3774 931.355,18.9496L935.806,14L949.908,14L964.01,14L963.755,105.75L963.5,197.5L940.726,197.769C923.026,197.978 917.856,197.755 917.524,196.769ZM225.803,150.002L226.105,136L553.053,136L880,136L880,150L880,164L552.75,164.002L225.5,164.003L225.803,150.002ZM1105.79,47.501L1106.08,27L1102.04,27L1098,27L1098,21L1098,15L1114,15L1130,15L1130,21L1130,27L1125.5,27L1121,27L1121,47.5L1121,68L1113.25,68.001L1105.5,68.002L1105.79,47.501ZM1130.01,50.75C1130.01,41.2625 1130.3,29.1125 1130.66,23.75L1131.3,14L1140.53,14C1150.55,14 1150.95,14.255 1150.99,20.75C1151.01,24.7991 1152.88,23.1072 1153.19,18.75L1153.5,14.5L1164.25,14.2162L1175,13.9323L1175,40.9662L1175,68L1167,68L1159,68L1158.9,62.75L1158.81,57.5L1157.65,62.5L1156.5,67.5L1151.88,67.7995C1147.78,68.0651 1147.19,67.839 1146.64,65.7995C1146.3,64.5348 1146.02,62.4875 1146.01,61.25C1146.01,60.0125 1145.55,59 1145,59C1144.45,59 1144,61.025 1144,63.5L1144,68L1137,68L1130,68L1130.01,50.75Z" fill="#D3D3D3"/>
</g>
</svg>
